<svg width="116" height="134" viewBox="0 0 116 134" fill="none" xmlns="http://www.w3.org/2000/svg">
<path d="M107.787 92.229C107.15 92.229 106.631 92.9247 106.631 93.7784V111.296H102.216C102.393 109.573 102.345 108.087 102.334 107.818C102.334 107.692 102.31 107.549 102.275 107.423C101.968 106.158 101.023 102.284 101.484 101.114C103.231 96.6717 105.426 84.0392 105.533 83.391C106.654 73.3513 103.313 66.8848 101.047 62.4895C98.3437 57.2721 93.7518 53.8096 92.1936 52.7345C90.3403 41.9518 83.0923 39.3272 79.3502 39.4221C74.0264 39.6434 67.5339 35.7857 65.5507 34.4892C65.6215 29.5722 66.1999 26.6156 66.3416 25.9358C67.9824 22.3626 68.5018 19.6274 67.9352 17.5879C67.7581 16.9871 67.5102 16.5128 67.2269 16.1491C68.313 2.93158 60.4275 0.386101 60.3095 0.354481C60.2268 0.33867 58.3617 -0.119833 57.0396 0.0382715C55.5876 -0.135643 53.7225 0.33867 53.5927 0.354481C53.51 0.370291 45.6246 2.91577 46.7224 16.1491C46.4391 16.4969 46.1912 16.9713 46.0142 17.5879C45.4475 19.6274 45.9669 22.3468 47.6078 25.9358C47.7494 26.6156 48.3278 29.5722 48.3987 34.4892C46.4037 35.7857 40.0056 39.6276 34.5991 39.4221C30.9279 39.3272 23.6091 41.9676 21.7558 52.7661C20.2566 53.8728 15.8063 57.4144 13.1031 62.6318L12.8079 63.2168C10.6359 67.4066 7.34243 73.7308 8.45206 83.5174C8.5465 84.055 10.7303 96.6875 12.4892 101.13C12.9496 102.284 12.0052 106.158 11.6983 107.439C11.6629 107.565 11.6511 107.692 11.6393 107.834C11.6275 108.103 11.5803 109.589 11.7573 111.312H9.0659V93.7784C9.0659 92.9247 8.5465 92.229 7.90905 92.229C7.27161 92.229 6.7522 92.9247 6.7522 93.7784V131.882C6.7522 132.735 7.27161 133.431 7.90905 133.431C8.5465 133.431 9.0659 132.735 9.0659 131.882V114.379H12.3712C12.4302 114.585 12.4892 114.775 12.56 114.964C12.6073 115.787 12.8316 117.526 13.7405 118.696C14.2245 119.312 14.8147 119.692 15.4994 119.802C16.0306 120.403 16.8805 120.957 18.12 120.862C18.4505 121.051 18.9463 121.241 19.5838 121.241C19.8907 121.241 20.233 121.194 20.5989 121.083C21.0829 121.194 21.9801 121.273 23.1369 120.767C23.7035 120.878 24.4 120.767 24.9666 120.15C25.6041 119.47 25.911 118.364 25.8992 116.846C26.029 116.719 26.1707 116.561 26.2887 116.372C26.6311 115.85 26.8436 115.186 26.9498 114.364H87.0586C87.1648 115.17 87.3773 115.85 87.7196 116.372C87.8377 116.561 87.9793 116.719 88.1092 116.846C88.0974 118.348 88.4043 119.455 89.0417 120.15C89.6084 120.767 90.3166 120.878 90.8715 120.767C92.0283 121.257 92.9255 121.178 93.4094 121.083C94.5427 121.415 95.3926 121.131 95.8766 120.862C97.1043 120.972 97.9778 120.403 98.509 119.802C99.1819 119.692 99.7839 119.328 100.268 118.696C101.177 117.51 101.389 115.771 101.448 114.949C101.519 114.759 101.578 114.569 101.625 114.364H106.642V131.882C106.642 132.735 107.162 133.431 107.787 133.431C108.425 133.431 108.944 132.735 108.944 131.882V93.7784C108.944 92.9247 108.425 92.229 107.787 92.229ZM21.6377 81.4937C23.3258 80.6716 26.2061 79.0905 27.5754 77.462C28.8385 75.96 29.7947 74.7584 30.6446 73.4778C31.3883 77.0352 33.7964 82.0154 39.8994 88.4977C39.7223 91.7389 39.2265 103.312 40.9382 111.281H26.9144C26.9026 111.154 26.9026 111.043 26.8908 110.933C26.8672 110.743 26.8199 110.569 26.7491 110.411C26.6547 110.19 24.5063 105.367 21.8384 102.98C21.6259 100.45 21.4253 96.9879 21.6023 95.9603C22.287 91.8812 22.9953 86.1262 21.6377 81.4937ZM66.0347 111.281H47.9383V94.1263C47.9383 87.4384 51.9991 82.0154 56.9806 82.0154C61.9739 82.0154 66.0347 87.4542 66.0347 94.1263V111.281ZM74.0854 88.4977C80.2001 82.0154 82.6083 77.0352 83.352 73.4778C84.2019 74.7584 85.1581 75.96 86.4211 77.462C87.7787 79.0905 90.6708 80.6716 92.3588 81.4937C91.0013 86.1104 91.7096 91.8654 92.4061 95.9761C92.5831 96.9879 92.3942 100.45 92.17 102.98C89.4785 105.352 87.3537 110.19 87.2593 110.411C87.1884 110.569 87.1412 110.743 87.1176 110.933C87.1058 111.043 87.1058 111.154 87.094 111.281H73.0466C74.77 103.312 74.2743 91.7389 74.0854 88.4977ZM99.1464 114.522C99.1464 114.791 99.0638 115.945 98.6625 116.466C98.5562 116.593 98.4146 116.719 98.025 116.719C97.6355 116.704 97.2577 116.909 97.0334 117.368C96.998 117.431 96.6793 117.905 95.8058 117.731C95.5579 117.668 95.2391 117.794 95.0149 117.968C95.0031 117.984 94.5663 118.316 93.74 117.984C93.5393 117.905 93.2914 117.921 93.0789 117.984C93.0553 118 92.406 118.237 91.3318 117.7C91.0721 117.573 90.7534 117.636 90.5055 117.763C90.5055 117.763 90.3284 117.368 90.4583 116.04C90.5055 115.581 90.4937 115.138 90.2576 114.806C90.0215 114.458 89.7736 114.3 89.4431 114.332C89.4431 114.332 89.3487 114.158 89.3015 113.684C89.4313 113.431 89.5257 113.146 89.5257 112.814C89.5257 112.514 89.4313 112.245 89.3251 111.992C89.3369 111.897 89.3369 111.834 89.3487 111.739C89.8208 110.727 91.7332 106.79 93.799 105.257C94.1295 105.02 94.342 104.593 94.3892 104.087C94.4955 102.98 95.0031 97.32 94.6489 95.2646C93.9524 91.1539 93.2324 85.2408 94.944 81.383C95.1211 80.972 95.1565 80.4976 95.0267 80.0391C94.9086 79.6123 94.6371 79.2644 94.3066 79.1063C92.9727 78.5213 89.2306 76.6557 87.9439 75.1221C85.7011 72.4343 84.5442 70.8533 83.1513 67.9916C82.8326 67.3275 82.1715 67.0904 81.6521 67.454C81.5695 67.5173 81.4986 67.6121 81.4278 67.6912C81.7701 66.3947 82.0062 65.035 82.0062 63.6121C82.0062 62.7583 81.4868 62.0627 80.8494 62.0627C80.2119 62.0627 79.7043 62.7583 79.7043 63.6121C79.7043 69.5568 75.4311 74.4106 70.1781 74.4106C64.925 74.4106 60.6636 69.5726 60.6636 63.6121V57.2405C60.6636 56.3867 60.1442 55.691 59.5068 55.691C58.8693 55.691 58.3499 56.3867 58.3499 57.2405V63.6121C58.3499 71.2643 63.662 77.4937 70.1781 77.4937C75.0652 77.4937 79.244 74.0154 81.0619 69.0509C81.0737 69.1774 81.0855 69.288 81.1209 69.4145C81.5459 70.8058 82.1479 76.1656 72.173 86.5372C71.8661 86.8693 71.6891 87.3752 71.7363 87.8969C71.7481 88.055 72.7397 102.806 70.6266 111.249H68.3366V94.1263C68.3366 85.7309 63.237 78.9166 56.9806 78.9166C50.7242 78.9166 45.6246 85.7467 45.6246 94.1263V111.281H43.3581C41.2451 102.838 42.2367 88.0867 42.2485 87.9286C42.2839 87.4068 42.1187 86.8851 41.8117 86.5689C31.8487 76.1972 32.4507 70.8375 32.8639 69.4461C32.8993 69.3038 32.9111 69.1774 32.9229 69.0351C34.7172 74.0312 38.9314 77.5253 43.8185 77.5253C50.3464 77.5253 55.6467 71.296 55.6467 63.6437V57.2721C55.6467 56.4183 55.1273 55.7227 54.4898 55.7227C53.8524 55.7227 53.333 56.4183 53.333 57.2721V63.6437C53.333 69.5884 49.0597 74.4422 43.8067 74.4422C38.5537 74.4422 34.2922 69.6042 34.2922 63.6437C34.2922 62.7899 33.7728 62.0943 33.1354 62.0943C32.4979 62.0943 31.9785 62.7899 31.9785 63.6437C31.9785 65.0983 32.2264 66.458 32.5688 67.7702C32.4861 67.6754 32.4035 67.5647 32.2973 67.5015C31.7661 67.1378 31.1168 67.3592 30.7981 68.039C29.4169 70.8849 28.2601 72.4818 26.0172 75.1537C24.7305 76.6873 20.9885 78.553 19.6546 79.1379C19.3241 79.2802 19.0526 79.6281 18.9345 80.0708C18.8165 80.5135 18.8401 81.0036 19.0289 81.4146C20.7524 85.2882 20.0323 91.2013 19.3241 95.2962C18.9699 97.3516 19.4775 102.996 19.5838 104.118C19.631 104.609 19.8435 105.035 20.174 105.288C22.2398 106.822 24.1639 110.759 24.6361 111.771C24.8604 113.7 24.5889 114.269 24.6951 114.316C24.3646 114.316 24.0459 114.49 23.8216 114.822C23.5855 115.154 23.4793 115.628 23.5265 116.071C23.6681 117.431 23.4911 117.794 23.4557 117.715C23.196 117.605 22.9126 117.605 22.6529 117.731C21.6023 118.269 20.9413 118.047 20.9413 118.047C20.717 117.953 20.4809 117.937 20.2566 118.016C19.4539 118.316 19.0053 118.016 19.0053 118.016C18.7692 117.779 18.4623 117.684 18.1672 117.763C17.3173 117.937 16.9986 117.462 16.9868 117.462C16.7625 117.004 16.3965 116.735 15.9716 116.751C15.6174 116.735 15.4404 116.625 15.3459 116.498C14.9564 115.992 14.8619 114.885 14.8501 114.538C14.8501 114.269 14.7911 113.984 14.6967 113.747C14.5196 113.368 14.3898 112.893 14.2835 112.403C14.2717 112.34 14.2717 112.292 14.2599 112.245C13.9766 110.759 13.9294 109.051 13.953 108.198C14.6849 105.162 15.3695 101.779 14.5432 99.6915C12.926 95.6124 10.7421 82.9641 10.7303 82.9483C9.77417 74.4897 12.6309 69.0034 14.7203 64.9876L15.0272 64.4026C17.8957 58.8531 23.2668 55.2167 23.314 55.1851C23.6327 54.9796 23.8688 54.5685 23.9278 54.0942C25.2736 44.7186 31.5064 42.3787 34.5637 42.5368C41.7055 42.7581 49.7798 37.0822 50.1221 36.8292C50.4999 36.5604 50.736 36.0387 50.736 35.4695C50.736 28.671 49.8152 24.9713 49.7798 24.8132C49.7444 24.7026 49.709 24.5919 49.6618 24.497C47.9855 20.8923 48.0563 19.2954 48.1744 18.7895C48.2452 18.4574 48.3515 18.3942 48.316 18.3942C48.8591 18.1729 49.2014 17.4456 49.1188 16.6867C47.8675 5.50869 53.8642 3.46914 54.0767 3.4059C54.537 3.29522 55.9182 3.02645 56.8743 3.13712C56.9452 3.13712 57.075 3.13712 57.134 3.13712C58.2555 3.01064 59.8727 3.39009 59.8727 3.39009C60.1324 3.46914 66.1409 5.41382 64.8778 16.6867C64.7952 17.4456 65.0667 18.1412 65.6215 18.3626C65.6451 18.3784 65.7632 18.4733 65.834 18.7737C65.9402 19.2954 66.0111 20.8764 64.3348 24.4812C64.2876 24.5761 64.2522 24.6868 64.2168 24.7974C64.1814 24.9555 63.2606 28.6552 63.2606 35.4537C63.2606 36.0229 63.4967 36.5604 63.8744 36.8134C64.2168 37.0505 72.4327 42.7897 79.4446 42.5209C82.5256 42.347 88.7348 44.7028 90.0806 54.0784C90.1514 54.5685 90.3875 54.9796 90.7298 55.1851C90.777 55.2167 96.3252 58.7108 99.2291 64.3394C101.236 68.2287 104.27 74.1102 103.29 82.806C103.266 82.9325 101.082 95.565 99.4652 99.6599C98.6389 101.763 99.3235 105.13 100.055 108.166C100.079 109.352 99.9964 112.15 99.3117 113.731C99.1937 113.968 99.1464 114.253 99.1464 114.522ZM5.6898 97.5097V128.15C5.6898 129.004 5.17039 129.684 4.53295 129.684C3.8955 129.684 3.3761 128.988 3.3761 128.15V97.5097C3.3761 96.6559 3.8955 95.9603 4.53295 95.9603C5.1822 95.9603 5.6898 96.6559 5.6898 97.5097ZM112.32 97.5097V128.15C112.32 129.004 111.801 129.684 111.163 129.684C110.526 129.684 110.007 128.988 110.007 128.15V97.5097C110.007 96.6559 110.526 95.9603 111.163 95.9603C111.801 95.9603 112.32 96.6559 112.32 97.5097ZM2.31369 106.474V119.186C2.31369 120.04 1.79429 120.735 1.15685 120.735C0.519401 120.735 -4.50308e-08 120.04 -4.50308e-08 119.186V106.474C-4.50308e-08 105.62 0.519401 104.941 1.15685 104.941C1.8061 104.925 2.31369 105.62 2.31369 106.474ZM115.696 106.474V119.186C115.696 120.04 115.177 120.735 114.551 120.735C113.914 120.735 113.395 120.04 113.395 119.186V106.474C113.395 105.62 113.914 104.941 114.551 104.941C115.177 104.925 115.696 105.62 115.696 106.474ZM72.5036 69.288C72.5036 70.5212 71.7717 71.5173 70.8745 71.5173C69.9774 71.5173 69.2573 70.5212 69.2573 69.288C69.2573 68.0548 69.9774 67.0588 70.8745 67.0588C71.7717 67.0588 72.5036 68.0548 72.5036 69.288ZM44.7629 69.288C44.7629 70.5212 44.0428 71.5173 43.1338 71.5173C42.2367 71.5173 41.5048 70.5212 41.5048 69.288C41.5048 68.0548 42.2249 67.0588 43.1338 67.0588C44.0428 67.0588 44.7629 68.0548 44.7629 69.288ZM62.7176 89.3515C63.1662 88.7507 63.898 88.7349 64.3466 89.3515C64.7952 89.9523 64.807 90.9325 64.3584 91.5333C64.2876 91.6124 62.6468 93.8101 60.3213 93.8101C60.3213 93.8101 60.3095 93.8101 60.2977 93.8101C59.554 93.8101 58.8221 93.5729 58.1256 93.1302V95.5966C58.8339 96.4504 59.554 96.9089 60.3095 96.9089H60.3213C61.667 96.9089 62.694 95.565 62.7058 95.5492C63.1544 94.9484 63.8862 94.9326 64.3348 95.5492C64.7834 96.15 64.7952 97.1302 64.3348 97.731C64.264 97.8259 62.6232 100.008 60.3095 100.008C60.2977 100.008 60.2977 100.008 60.2859 100.008C59.5422 100.008 58.8103 99.7706 58.1138 99.3279V102.616C58.8221 103.454 59.5422 103.913 60.2741 103.929C61.608 103.818 62.694 102.569 62.7058 102.569C63.1544 101.968 63.8862 101.968 64.3348 102.569C64.7834 103.17 64.7834 104.134 64.3348 104.735C64.264 104.83 62.6232 107.028 60.3095 107.028C60.2977 107.028 60.2977 107.028 60.2859 107.028C59.5304 107.028 58.8103 106.79 58.1256 106.348V106.949C58.1256 107.802 57.6062 108.498 56.9688 108.498C56.3313 108.498 55.8119 107.802 55.8119 106.949V106.348C55.1155 106.79 54.3954 107.012 53.6399 107.028C53.6399 107.028 53.6281 107.028 53.6163 107.028C51.3026 107.028 49.65 104.846 49.5909 104.735C49.1424 104.134 49.1424 103.154 49.5909 102.553C50.0395 101.952 50.7714 101.952 51.22 102.553C51.2554 102.585 52.2942 103.913 53.6163 103.913C53.6281 103.913 53.6399 103.913 53.6399 103.913C54.3718 103.897 55.1037 103.439 55.8001 102.601V99.2963C55.1037 99.739 54.3836 99.9603 53.6281 99.9761C53.6281 99.9761 53.6163 99.9761 53.6045 99.9761C51.279 99.9761 49.6381 97.7943 49.5791 97.6994C49.1306 97.0986 49.1306 96.1184 49.5791 95.5176C50.0277 94.9168 50.7596 94.9168 51.2082 95.5176C51.2318 95.5492 52.2706 96.8931 53.6045 96.8931C53.6163 96.8931 53.6163 96.8931 53.6281 96.8931C54.36 96.8931 55.0919 96.4188 55.7883 95.5808V93.1144C55.0919 93.5571 54.3718 93.7784 53.6163 93.7784C53.6163 93.7784 53.6045 93.7784 53.5927 93.7784C51.2672 93.7784 49.6264 91.5966 49.5555 91.5017C49.1069 90.9009 49.1069 89.9207 49.5555 89.3199C50.0041 88.7191 50.736 88.7191 51.1845 89.3199C51.22 89.3515 52.1997 90.6163 53.6163 90.6954C54.3482 90.6796 55.0801 90.2211 55.7765 89.3831V86.6479C55.7765 85.7941 56.2959 85.0985 56.9334 85.0985C57.5708 85.0985 58.0902 85.7941 58.0902 86.6479V89.3831C58.7985 90.2369 59.5186 90.6954 60.2623 90.6954C60.2623 90.6954 60.2622 90.6954 60.2741 90.6954C61.667 90.7112 62.7058 89.3673 62.7176 89.3515ZM30.7273 58.6634C30.7863 59.5172 30.3141 60.2603 29.6766 60.3235C20.6462 61.3354 19.808 71.4699 19.7844 71.8968C19.7254 72.7031 19.2296 73.2881 18.6394 73.2881C18.604 73.2881 18.5686 73.2881 18.5331 73.2723C17.8957 73.1932 17.4353 72.4343 17.4944 71.5964C17.5062 71.4699 18.5568 58.4737 29.4996 57.2405C30.1252 57.1614 30.6682 57.8255 30.7273 58.6634ZM96.514 71.9916C96.5612 72.8454 96.0773 73.5885 95.4516 73.6517C95.428 73.6517 95.3926 73.6517 95.369 73.6517C94.767 73.6517 94.2594 73.0351 94.2239 72.2288C93.5629 60.118 86.008 58.9322 85.6893 58.8848C85.0518 58.7899 84.5914 58.031 84.6623 57.193C84.7213 56.3551 85.2879 55.7227 85.9253 55.8175C86.0198 55.8175 95.7113 57.3353 96.514 71.9916Z" transform="translate(0.303711)" fill="#3A405A"/>
</svg>
